<svg width="14" height="14" viewBox="0 0 14 14" fill="none" xmlns="http://www.w3.org/2000/svg">
<path d="M13.3232 11.2413L10.7916 8.70962C10.6773 8.59535 10.5224 8.53187 10.3599 8.53187H9.946C10.6468 7.63552 11.0633 6.50809 11.0633 5.28164C11.0633 2.36404 8.69923 0 5.78164 0C2.86404 0 0.5 2.36404 0.5 5.28164C0.5 8.19923 2.86404 10.5633 5.78164 10.5633C7.00809 10.5633 8.13552 10.1468 9.03187 9.446V9.8599C9.03187 10.0224 9.09536 10.1773 9.20962 10.2916L11.7413 12.8232C11.9799 13.0619 12.3659 13.0619 12.6021 12.8232L13.3207 12.1046C13.5594 11.8659 13.5594 11.4799 13.3232 11.2413ZM5.78164 8.53187C3.98639 8.53187 2.5314 7.07942 2.5314 5.28164C2.5314 3.48639 3.98385 2.0314 5.78164 2.0314C7.57688 2.0314 9.03187 3.48385 9.03187 5.28164C9.03187 7.07688 7.57942 8.53187 5.78164 8.53187Z" fill="#0D0C22"/>
</svg>
