<svg width="15" height="14" viewBox="0 0 15 14" fill="none" xmlns="http://www.w3.org/2000/svg">
<path d="M13.5938 6.5625H1.40625C1.03329 6.5625 0.675604 6.71066 0.411881 6.97438C0.148158 7.2381 0 7.59579 0 7.96875C0 8.34171 0.148158 8.6994 0.411881 8.96312C0.675604 9.22684 1.03329 9.375 1.40625 9.375H13.5938C13.9667 9.375 14.3244 9.22684 14.5881 8.96312C14.8518 8.6994 15 8.34171 15 7.96875C15 7.59579 14.8518 7.2381 14.5881 6.97438C14.3244 6.71066 13.9667 6.5625 13.5938 6.5625ZM14.0625 10.3125H0.9375C0.81318 10.3125 0.693951 10.3619 0.606044 10.4498C0.518136 10.5377 0.46875 10.6569 0.46875 10.7812V11.25C0.46875 11.7473 0.666294 12.2242 1.01792 12.5758C1.36956 12.9275 1.84647 13.125 2.34375 13.125H12.6562C13.1535 13.125 13.6304 12.9275 13.9821 12.5758C14.3337 12.2242 14.5312 11.7473 14.5312 11.25V10.7812C14.5312 10.6569 14.4819 10.5377 14.394 10.4498C14.306 10.3619 14.1868 10.3125 14.0625 10.3125ZM1.71797 5.625H13.282C14.2948 5.625 14.8822 4.33887 14.3021 3.40195C13.125 1.5 10.5337 0.00292969 7.5 0C4.4666 0.00292969 1.875 1.5 0.697852 3.40166C0.117188 4.33857 0.705176 5.625 1.71797 5.625ZM11.25 2.34375C11.3427 2.34375 11.4333 2.37124 11.5104 2.42275C11.5875 2.47426 11.6476 2.54746 11.6831 2.63312C11.7185 2.71877 11.7278 2.81302 11.7097 2.90395C11.6917 2.99488 11.647 3.0784 11.5815 3.14396C11.5159 3.20951 11.4324 3.25416 11.3414 3.27224C11.2505 3.29033 11.1563 3.28105 11.0706 3.24557C10.985 3.21009 10.9118 3.15001 10.8602 3.07292C10.8087 2.99584 10.7812 2.90521 10.7812 2.8125C10.7812 2.68818 10.8306 2.56895 10.9185 2.48104C11.0065 2.39314 11.1257 2.34375 11.25 2.34375ZM7.5 1.40625C7.59271 1.40625 7.68334 1.43374 7.76042 1.48525C7.83751 1.53676 7.89759 1.60996 7.93307 1.69562C7.96855 1.78127 7.97783 1.87552 7.95974 1.96645C7.94166 2.05738 7.89701 2.1409 7.83146 2.20646C7.7659 2.27201 7.68238 2.31666 7.59145 2.33474C7.50052 2.35283 7.40627 2.34355 7.32062 2.30807C7.23496 2.27259 7.16176 2.21251 7.11025 2.13542C7.05874 2.05834 7.03125 1.96771 7.03125 1.875C7.03125 1.75068 7.08064 1.63145 7.16854 1.54354C7.25645 1.45564 7.37568 1.40625 7.5 1.40625ZM3.75 2.34375C3.84271 2.34375 3.93334 2.37124 4.01042 2.42275C4.08751 2.47426 4.14759 2.54746 4.18307 2.63312C4.21855 2.71877 4.22783 2.81302 4.20974 2.90395C4.19166 2.99488 4.14701 3.0784 4.08146 3.14396C4.0159 3.20951 3.93238 3.25416 3.84145 3.27224C3.75052 3.29033 3.65627 3.28105 3.57062 3.24557C3.48496 3.21009 3.41176 3.15001 3.36025 3.07292C3.30874 2.99584 3.28125 2.90521 3.28125 2.8125C3.28125 2.68818 3.33064 2.56895 3.41854 2.48104C3.50645 2.39314 3.62568 2.34375 3.75 2.34375Z" fill="#0D0C22"/>
</svg>
