<svg width="80" height="17" viewBox="0 0 80 17" fill="none" xmlns="http://www.w3.org/2000/svg">
<path d="M22.9718 6.99628V3.64725H25.8436C26.4447 3.64725 26.8955 3.78054 27.1961 4.04713C27.4966 4.30261 27.6469 4.71916 27.6469 5.29677C27.6469 5.89659 27.4966 6.3298 27.1961 6.59639C26.8955 6.86298 26.4447 6.99628 25.8436 6.99628H22.9718ZM20.3503 1.6145V13.5111H22.9718V8.8624H25.5932C26.2499 8.8624 26.723 9.0068 27.0124 9.29561C27.3018 9.58441 27.4911 10.0398 27.5801 10.6619C27.6469 11.1395 27.697 11.6394 27.7304 12.1614C27.7638 12.6835 27.8528 13.1334 27.9975 13.5111H30.619C30.4965 13.3444 30.4019 13.1445 30.3351 12.9112C30.2794 12.6669 30.2349 12.4114 30.2015 12.1448C30.1793 11.8782 30.1626 11.6172 30.1514 11.3617C30.1403 11.1062 30.1292 10.884 30.118 10.6952C30.0958 10.3953 30.0513 10.0954 29.9845 9.79547C29.9288 9.49555 29.8342 9.22341 29.7006 8.97903C29.567 8.72355 29.3945 8.50695 29.183 8.32922C28.9715 8.14039 28.7044 8.00154 28.3816 7.91268V7.87935C29.0494 7.61276 29.5281 7.22399 29.8175 6.71302C30.118 6.20206 30.2683 5.59668 30.2683 4.89688C30.2683 4.44146 30.1848 4.01936 30.0179 3.63058C29.862 3.2307 29.6283 2.8808 29.3166 2.58089C29.016 2.28098 28.6487 2.04771 28.2146 1.88109C27.7916 1.70337 27.313 1.6145 26.7787 1.6145H20.3503Z" fill="#0D0C22"/>
<path d="M37.4593 8.27924H33.6024C33.6135 8.11262 33.6469 7.92378 33.7025 7.71273C33.7693 7.50168 33.8751 7.30174 34.0198 7.11291C34.1756 6.92407 34.376 6.76856 34.6209 6.64638C34.8769 6.51308 35.1941 6.44643 35.5726 6.44643C36.1514 6.44643 36.58 6.60195 36.8583 6.91297C37.1477 7.22399 37.348 7.67941 37.4593 8.27924ZM33.6024 9.7788H39.8303C39.8748 9.11233 39.8192 8.47362 39.6633 7.86269C39.5075 7.25176 39.2515 6.70747 38.8953 6.22983C38.5502 5.75219 38.105 5.37452 37.5595 5.09683C37.0141 4.80802 36.374 4.66362 35.6394 4.66362C34.9826 4.66362 34.3815 4.78025 33.8361 5.01352C33.3018 5.24678 32.8399 5.56891 32.4503 5.9799C32.0607 6.37979 31.7601 6.85743 31.5486 7.41282C31.3371 7.96822 31.2314 8.56804 31.2314 9.2123C31.2314 9.87877 31.3316 10.4897 31.5319 11.0451C31.7434 11.6005 32.0384 12.0781 32.4169 12.478C32.7953 12.8779 33.2573 13.1889 33.8027 13.4111C34.3481 13.6221 34.9604 13.7277 35.6394 13.7277C36.6189 13.7277 37.4538 13.5055 38.1439 13.0612C38.8341 12.6169 39.3461 11.8782 39.68 10.8452H37.5929C37.515 11.1117 37.3035 11.3672 36.9584 11.6116C36.6134 11.8449 36.2015 11.9615 35.7229 11.9615C35.055 11.9615 34.5429 11.7893 34.1867 11.445C33.8305 11.1006 33.6357 10.5452 33.6024 9.7788Z" fill="#0D0C22"/>
<path d="M46.6129 7.92934H48.9338C48.9004 7.37394 48.7668 6.8963 48.5331 6.49642C48.2993 6.08543 47.9932 5.74664 47.6147 5.48005C47.2474 5.20235 46.8244 4.99686 46.3458 4.86356C45.8782 4.73027 45.3885 4.66362 44.8764 4.66362C44.1752 4.66362 43.5518 4.78025 43.0064 5.01352C42.4609 5.24678 41.999 5.57447 41.6205 5.99656C41.2421 6.40756 40.9527 6.90186 40.7523 7.47947C40.5631 8.04597 40.4684 8.66246 40.4684 9.32893C40.4684 9.97319 40.5742 10.5675 40.7857 11.1118C40.9972 11.6449 41.2922 12.1059 41.6706 12.4947C42.0491 12.8835 42.5055 13.1889 43.0398 13.4111C43.5852 13.6221 44.1807 13.7277 44.8263 13.7277C45.9729 13.7277 46.9135 13.4277 47.6481 12.8279C48.3828 12.2281 48.828 11.3561 48.9839 10.212H46.6964C46.6185 10.7452 46.4237 11.1728 46.112 11.495C45.8115 11.806 45.3773 11.9615 44.8096 11.9615C44.4423 11.9615 44.1306 11.8782 43.8746 11.7116C43.6186 11.545 43.4127 11.3339 43.2568 11.0784C43.1121 10.8118 43.0064 10.5175 42.9396 10.1953C42.8728 9.87322 42.8394 9.55664 42.8394 9.24562C42.8394 8.92349 42.8728 8.60137 42.9396 8.27924C43.0064 7.946 43.1177 7.64609 43.2735 7.3795C43.4405 7.1018 43.652 6.87964 43.908 6.71302C44.164 6.5353 44.4813 6.44643 44.8597 6.44643C45.8727 6.44643 46.4571 6.94074 46.6129 7.92934Z" fill="#0D0C22"/>
<path d="M52.2601 3.56394V1.6145H49.8892V3.56394H52.2601ZM49.8892 4.89688V13.5111H52.2601V4.89688H49.8892Z" fill="#0D0C22"/>
<path d="M57.984 11.9615C57.6056 11.9615 57.2828 11.8837 57.0156 11.7282C56.7485 11.5727 56.5314 11.3728 56.3644 11.1284C56.2086 10.8729 56.0917 10.5786 56.0138 10.2453C55.947 9.9121 55.9136 9.57331 55.9136 9.22896C55.9136 8.87351 55.947 8.52917 56.0138 8.19593C56.0806 7.86269 56.1919 7.56833 56.3477 7.31285C56.5147 7.05737 56.7262 6.85187 56.9822 6.69636C57.2494 6.52974 57.5777 6.44643 57.9673 6.44643C58.3458 6.44643 58.663 6.52974 58.9191 6.69636C59.1862 6.85187 59.4033 7.06292 59.5702 7.32951C59.7372 7.58499 59.8541 7.87935 59.9209 8.21259C59.9988 8.54583 60.0378 8.88462 60.0378 9.22896C60.0378 9.57331 60.0044 9.9121 59.9376 10.2453C59.8708 10.5786 59.7539 10.8729 59.5869 11.1284C59.4311 11.3728 59.2196 11.5727 58.9525 11.7282C58.6964 11.8837 58.3736 11.9615 57.984 11.9615ZM53.6261 4.89688V16.5268H55.9971V12.4447H56.0305C56.3199 12.8668 56.6872 13.1889 57.1325 13.4111C57.5889 13.6221 58.0842 13.7277 58.6185 13.7277C59.253 13.7277 59.804 13.6055 60.2715 13.3611C60.7502 13.1167 61.1453 12.789 61.457 12.378C61.7798 11.9671 62.0191 11.495 62.175 10.9618C62.3308 10.4286 62.4087 9.87322 62.4087 9.29561C62.4087 8.68468 62.3308 8.10151 62.175 7.54612C62.0191 6.97961 61.7798 6.48531 61.457 6.06321C61.1342 5.64111 60.7279 5.30232 60.2381 5.04684C59.7483 4.79136 59.164 4.66362 58.4849 4.66362C57.9506 4.66362 57.4609 4.76914 57.0156 4.98019C56.5704 5.19124 56.203 5.53003 55.9136 5.99656H55.8802V4.89688H53.6261Z" fill="#0D0C22"/>
<path d="M69.1431 8.27924H65.2861C65.2972 8.11262 65.3306 7.92378 65.3863 7.71273C65.453 7.50168 65.5588 7.30174 65.7035 7.11291C65.8593 6.92407 66.0597 6.76856 66.3046 6.64638C66.5606 6.51308 66.8778 6.44643 67.2563 6.44643C67.8351 6.44643 68.2637 6.60195 68.542 6.91297C68.8314 7.22399 69.0318 7.67941 69.1431 8.27924ZM65.2861 9.7788H71.514C71.5586 9.11233 71.5029 8.47362 71.3471 7.86269C71.1912 7.25176 70.9352 6.70747 70.579 6.22983C70.2339 5.75219 69.7887 5.37452 69.2432 5.09683C68.6978 4.80802 68.0578 4.66362 67.3231 4.66362C66.6664 4.66362 66.0653 4.78025 65.5198 5.01352C64.9855 5.24678 64.5236 5.56891 64.134 5.9799C63.7444 6.37979 63.4438 6.85743 63.2324 7.41282C63.0209 7.96822 62.9151 8.56804 62.9151 9.2123C62.9151 9.87877 63.0153 10.4897 63.2157 11.0451C63.4272 11.6005 63.7221 12.0781 64.1006 12.478C64.4791 12.8779 64.941 13.1889 65.4864 13.4111C66.0319 13.6221 66.6441 13.7277 67.3231 13.7277C68.3027 13.7277 69.1375 13.5055 69.8276 13.0612C70.5178 12.6169 71.0298 11.8782 71.3638 10.8452H69.2766C69.1987 11.1117 68.9872 11.3672 68.6422 11.6116C68.2971 11.8449 67.8852 11.9615 67.4066 11.9615C66.7387 11.9615 66.2267 11.7893 65.8705 11.445C65.5143 11.1006 65.3195 10.5452 65.2861 9.7788Z" fill="#0D0C22"/>
<path d="M74.256 10.7119H72.0019C72.0242 11.2895 72.1522 11.7727 72.3859 12.1614C72.6308 12.5391 72.9369 12.8446 73.3043 13.0778C73.6827 13.3111 74.1113 13.4777 74.5899 13.5777C75.0686 13.6777 75.5583 13.7277 76.0592 13.7277C76.549 13.7277 77.0277 13.6777 77.4952 13.5777C77.9738 13.4888 78.3968 13.3278 78.7641 13.0945C79.1315 12.8612 79.4265 12.5558 79.6491 12.1781C79.8828 11.7893 79.9997 11.3117 79.9997 10.7452C79.9997 10.3453 79.9218 10.0121 79.766 9.74548C79.6101 9.46778 79.4042 9.24007 79.1482 9.06234C78.8922 8.87351 78.5972 8.72355 78.2632 8.61247C77.9404 8.5014 77.6065 8.40698 77.2614 8.32922C76.9275 8.25147 76.5991 8.17927 76.2763 8.11262C75.9535 8.04597 75.6641 7.97377 75.4081 7.89601C75.1632 7.80715 74.9628 7.69607 74.807 7.56278C74.6511 7.42948 74.5732 7.25731 74.5732 7.04626C74.5732 6.86854 74.6177 6.72969 74.7068 6.62971C74.7958 6.51864 74.9016 6.43533 75.024 6.37979C75.1576 6.32425 75.3023 6.29092 75.4582 6.27982C75.614 6.2576 75.7587 6.24649 75.8923 6.24649C76.3153 6.24649 76.6826 6.3298 76.9943 6.49642C77.306 6.65193 77.4785 6.9574 77.5119 7.41282H79.766C79.7214 6.87964 79.5823 6.44088 79.3485 6.09654C79.1259 5.74108 78.8421 5.45783 78.497 5.24678C78.1519 5.03573 77.7568 4.88578 77.3115 4.79691C76.8774 4.70805 76.4266 4.66362 75.9591 4.66362C75.4916 4.66362 75.0352 4.70805 74.5899 4.79691C74.1447 4.87467 73.7439 5.01907 73.3877 5.23012C73.0315 5.43006 72.7421 5.70776 72.5195 6.06321C72.308 6.41867 72.2023 6.87409 72.2023 7.42948C72.2023 7.80715 72.2802 8.12928 72.436 8.39587C72.5919 8.65135 72.7978 8.86796 73.0538 9.04568C73.3098 9.2123 73.5992 9.35115 73.922 9.46223C74.256 9.5622 74.5955 9.65106 74.9405 9.72882C75.7865 9.90654 76.4433 10.0843 76.9108 10.262C77.3894 10.4397 77.6288 10.7063 77.6288 11.0618C77.6288 11.2728 77.5787 11.4505 77.4785 11.5949C77.3783 11.7282 77.2503 11.8393 77.0945 11.9282C76.9497 12.0059 76.7828 12.067 76.5935 12.1115C76.4154 12.1448 76.2429 12.1614 76.0759 12.1614C75.8422 12.1614 75.614 12.1337 75.3914 12.0781C75.1799 12.0226 74.9906 11.9393 74.8237 11.8282C74.6567 11.706 74.5176 11.5561 74.4062 11.3783C74.3061 11.1895 74.256 10.9673 74.256 10.7119Z" fill="#0D0C22"/>
<path d="M2.60259 7.20118H4.59167L2.23307 4.75394C2.19243 4.71174 2.1696 4.65453 2.1696 4.59487C2.1696 4.53521 2.19243 4.478 2.23307 4.4358L2.53996 4.11738C2.58063 4.07521 2.63577 4.05152 2.69327 4.05152C2.75077 4.05152 2.80591 4.07521 2.84658 4.11738L5.63894 7.01469V2.92554C5.63894 2.86586 5.66179 2.80862 5.70246 2.76642C5.74314 2.72422 5.7983 2.70051 5.85582 2.70051H6.28959C6.34711 2.70051 6.40227 2.72422 6.44294 2.76642C6.48362 2.80862 6.50647 2.86586 6.50647 2.92554V7.20118H7.93084C7.85295 6.90782 7.81159 6.60531 7.80776 6.30105C7.80877 5.34644 8.17469 4.43124 8.82524 3.75623C9.4758 3.08123 10.3579 2.70155 11.2779 2.70051C11.3497 2.70051 11.4167 2.71795 11.4874 2.72245C11.0106 2.16155 10.3206 1.80037 9.54282 1.80037C9.31202 1.80367 9.08269 1.83915 8.861 1.90586C8.62674 1.3401 8.23775 0.858024 7.74217 0.519283C7.24659 0.180541 6.66616 0 6.0727 0C5.47925 0 4.89882 0.180541 4.40324 0.519283C3.90765 0.858024 3.51867 1.3401 3.28441 1.90586C3.06272 1.83915 2.83339 1.80367 2.60259 1.80037C1.91234 1.80037 1.25036 2.08488 0.76228 2.5913C0.2742 3.09773 0 3.78458 0 4.50078C0 5.21697 0.2742 5.90383 0.76228 6.41025C1.25036 6.91668 1.91234 7.20118 2.60259 7.20118ZM13.4242 8.10132H0.438373C0.189772 8.10132 -0.0200616 8.31848 0.00162662 8.57502C0.181368 10.7232 1.57972 12.4959 3.47012 13.184V13.5021C3.47012 13.7409 3.56152 13.9698 3.72421 14.1386C3.8869 14.3074 4.10756 14.4023 4.33765 14.4023H9.54282C9.7729 14.4023 9.99356 14.3074 10.1563 14.1386C10.3189 13.9698 10.4103 13.7409 10.4103 13.5021V13.1784C12.2918 12.4858 13.6815 10.7173 13.8607 8.57502C13.8821 8.31848 13.6723 8.10132 13.4242 8.10132Z" fill="#0D0C22"/>
<path fill-rule="evenodd" clip-rule="evenodd" d="M13.9602 7.15156H9.0193C8.75607 6.44213 8.79913 5.62547 9.20691 4.91917C9.86497 3.77938 11.2475 3.31795 12.4381 3.78177L12.6564 3.40366L12.3492 3.22631C12.2768 3.18451 12.2517 3.09113 12.2935 3.01879L12.5466 2.58041C12.5883 2.50808 12.6817 2.4831 12.7541 2.52491L14.0706 3.28498C14.143 3.32678 14.1681 3.42017 14.1263 3.4925L13.8732 3.93088C13.8315 4.00321 13.7381 4.02819 13.6657 3.98639L13.3585 3.80904L13.1402 4.18714C13.5149 4.48823 13.7901 4.87801 13.9518 5.30743L14.4275 5.18023C14.5088 5.15849 14.5921 5.20662 14.614 5.2879L14.7454 5.77731C14.7672 5.85859 14.7191 5.94188 14.6378 5.96362L14.1292 6.09961L14.1189 6.10239C14.1385 6.45194 14.0874 6.80907 13.9602 7.15156ZM12.5707 5.1735L11.6121 6.83386C11.5703 6.90619 11.4769 6.93117 11.4045 6.88937L10.9657 6.63601C10.8933 6.59421 10.8682 6.50082 10.91 6.42849L11.8686 4.76812C11.9103 4.69579 12.0038 4.67081 12.0762 4.71262L12.515 4.96597C12.5874 5.00778 12.6125 5.10116 12.5707 5.1735Z" fill="#0D0C22"/>
</svg>
