<svg viewBox="0 0 46 64" xmlns="http://www.w3.org/2000/svg">
    <path
        d="M3.865 37.147H42.1237C45.5637 37.147 47.2838 41.3104 44.8564 43.7377L25.7271 62.8671C25.3714 63.2249 24.9487 63.5092 24.4831 63.7036C24.0176 63.8981 23.5183 63.9989 23.0137 64.0004C22.5092 64.0019 22.0093 63.904 21.5426 63.7123C21.0759 63.5206 20.6515 63.2389 20.2937 62.8832L20.2776 62.8671L1.13224 43.7377C-1.28705 41.3185 0.424941 37.147 3.865 37.147V37.147Z"
    />
    <path
        d="M1.13197 20.2676L20.2774 1.13823C20.6338 0.779737 21.0574 0.49509 21.524 0.300609C21.9905 0.106127 22.4909 0.00563367 22.9964 0.004887C23.5019 0.00414034 24.0026 0.103156 24.4697 0.296258C24.9369 0.48936 25.3614 0.772754 25.7188 1.1302C25.7245 1.13514 25.7299 1.14052 25.7349 1.14627L44.8642 20.2756C47.2915 22.7029 45.5715 26.8664 42.1314 26.8664H3.87277C0.424669 26.8583 -1.28733 22.6949 1.13197 20.2676V20.2676Z"
    />
</svg>