<svg width="10" height="10" viewBox="0 0 10 10" fill="none" xmlns="http://www.w3.org/2000/svg">
<path d="M8.4375 6.25H7.8125C7.72962 6.25 7.65013 6.28292 7.59153 6.34153C7.53292 6.40013 7.5 6.47962 7.5 6.5625V8.75H1.25V2.5H4.0625C4.14538 2.5 4.22487 2.46708 4.28347 2.40847C4.34208 2.34987 4.375 2.27038 4.375 2.1875V1.5625C4.375 1.47962 4.34208 1.40013 4.28347 1.34153C4.22487 1.28292 4.14538 1.25 4.0625 1.25H0.9375C0.68886 1.25 0.450403 1.34877 0.274587 1.52459C0.098772 1.7004 0 1.93886 0 2.1875L0 9.0625C0 9.31114 0.098772 9.5496 0.274587 9.72541C0.450403 9.90123 0.68886 10 0.9375 10H7.8125C8.06114 10 8.2996 9.90123 8.47541 9.72541C8.65123 9.5496 8.75 9.31114 8.75 9.0625V6.5625C8.75 6.47962 8.71708 6.40013 8.65847 6.34153C8.59987 6.28292 8.52038 6.25 8.4375 6.25ZM9.2709 0H6.17188C6.02683 0 5.88773 0.057617 5.78518 0.160176C5.68262 0.262735 5.625 0.401835 5.625 0.546875V0.912305C5.62705 0.984097 5.64322 1.05478 5.67259 1.12033C5.70195 1.18587 5.74394 1.24498 5.79616 1.2943C5.84837 1.34361 5.90979 1.38216 5.97691 1.40773C6.04402 1.43331 6.11551 1.44542 6.1873 1.44336L7.5 1.40625L2.63789 6.23223L2.63672 6.2334C2.54882 6.32131 2.49944 6.44053 2.49944 6.56484C2.49944 6.68916 2.54882 6.80838 2.63672 6.89629L3.1043 7.36211L3.10547 7.36328C3.19358 7.45077 3.31281 7.49972 3.43698 7.49939C3.56116 7.49906 3.68012 7.44948 3.76777 7.36152L8.59375 2.5L8.55703 3.81289V3.82812C8.55703 3.97317 8.61465 4.11227 8.71721 4.21482C8.81977 4.31738 8.95887 4.375 9.10391 4.375H9.45312C9.59817 4.375 9.73726 4.31738 9.83982 4.21482C9.94238 4.11227 10 3.97317 10 3.82812V0.729102C10 0.535732 9.92318 0.350282 9.78645 0.213549C9.64972 0.0768158 9.46427 0 9.2709 0V0Z" fill="#6E6D7A"/>
</svg>
