<svg viewBox="0 0 10 10" xmlns="http://www.w3.org/2000/svg">
    <path
        d="M9.7957 1.18959C10.132 0.853255 10.04 0.286247 9.61465 0.0735453C9.49887 0.0156827 9.36927 -0.00880712 9.24036 0.00281811C9.11145 0.0144433 8.98832 0.0617246 8.88477 0.139368L4.9041 3.125H7.86055L9.7957 1.18959ZM9.6875 3.75002H0.3125C0.139844 3.75002 0 3.88986 0 4.06253V4.68754C0 4.86021 0.139844 5.00005 0.3125 5.00005H0.625C0.625 6.58174 1.60547 7.93197 2.99082 8.48297C2.7416 8.81247 2.5666 9.20174 2.50352 9.62929C2.475 9.82304 2.62148 10 2.81738 10H7.18262C7.37852 10 7.525 9.82304 7.49648 9.62929C7.43359 9.20174 7.25859 8.81247 7.00918 8.48297C8.39453 7.93197 9.375 6.58174 9.375 5.00005H9.6875C9.86016 5.00005 10 4.86021 10 4.68754V4.06253C10 3.88986 9.86016 3.75002 9.6875 3.75002Z"
    />
</svg>