<svg viewBox="0 0 10 10" xmlns="http://www.w3.org/2000/svg">
    <path
        d="M5 3.125C3.9668 3.125 3.125 3.9668 3.125 5C3.125 6.0332 3.9668 6.875 5 6.875C6.0332 6.875 6.875 6.0332 6.875 5C6.875 3.9668 6.0332 3.125 5 3.125ZM9.8125 4.69727L7.96289 3.77344L8.61719 1.8125C8.70508 1.54688 8.45312 1.29492 8.18945 1.38477L6.22852 2.03906L5.30273 0.1875C5.17773 -0.0625 4.82227 -0.0625 4.69727 0.1875L3.77344 2.03711L1.81055 1.38281C1.54492 1.29492 1.29297 1.54687 1.38281 1.81055L2.03711 3.77148L0.1875 4.69727C-0.0625 4.82227 -0.0625 5.17773 0.1875 5.30273L2.03711 6.22656L1.38281 8.18945C1.29492 8.45508 1.54687 8.70703 1.81055 8.61719L3.77148 7.96289L4.69531 9.8125C4.82031 10.0625 5.17578 10.0625 5.30078 9.8125L6.22461 7.96289L8.18555 8.61719C8.45117 8.70508 8.70312 8.45312 8.61328 8.18945L7.95898 6.22852L9.80859 5.30469C10.0625 5.17773 10.0625 4.82227 9.8125 4.69727V4.69727ZM6.76758 6.76758C5.79297 7.74219 4.20703 7.74219 3.23242 6.76758C2.25781 5.79297 2.25781 4.20703 3.23242 3.23242C4.20703 2.25781 5.79297 2.25781 6.76758 3.23242C7.74219 4.20703 7.74219 5.79297 6.76758 6.76758Z"
    />
</svg>