<svg viewBox="0 0 12 10" xmlns="http://www.w3.org/2000/svg">
    <path
        d="M10.7469 0.18989C10.6367 -0.0542184 10.3219 -0.0639827 10.1901 0.166455C9.58004 1.21905 8.48792 1.87521 7.24035 1.87521H5.66613C3.58028 1.87521 1.88799 3.55467 1.88799 5.62471C1.88799 5.76141 1.90373 5.89225 1.91751 6.02504C3.17295 5.13259 4.98528 4.37488 7.5552 4.37488C7.72836 4.37488 7.87004 4.51548 7.87004 4.68733C7.87004 4.85919 7.72836 4.99979 7.5552 4.99979C2.6082 4.99979 0.510546 8.00915 0.0461501 9.13986C-0.0837234 9.45818 0.0697634 9.82141 0.390511 9.95225C0.713227 10.085 1.07923 9.93077 1.21304 9.61441C1.24256 9.5441 1.62431 8.67899 2.62788 7.84511C3.26544 8.70242 4.47759 9.52067 6.06952 9.35272C9.15894 9.1301 11.3333 6.38047 11.3333 3.01373C11.3333 2.03339 11.1208 1.0179 10.7469 0.18989V0.18989Z"
    />
</svg>