<svg viewBox="0 0 12 9" xmlns="http://www.w3.org/2000/svg">
    <path
        d="M1.8 3.56044C2.46188 3.56044 3 3.02823 3 2.37363C3 1.71902 2.46188 1.18681 1.8 1.18681C1.13813 1.18681 0.6 1.71902 0.6 2.37363C0.6 3.02823 1.13813 3.56044 1.8 3.56044ZM10.2 3.56044C10.8619 3.56044 11.4 3.02823 11.4 2.37363C11.4 1.71902 10.8619 1.18681 10.2 1.18681C9.53813 1.18681 9 1.71902 9 2.37363C9 3.02823 9.53813 3.56044 10.2 3.56044ZM10.8 4.15385H9.6C9.27 4.15385 8.97188 4.28551 8.75438 4.49876C9.51 4.90859 10.0463 5.64849 10.1625 6.52747H11.4C11.7319 6.52747 12 6.26229 12 5.93407V5.34066C12 4.68606 11.4619 4.15385 10.8 4.15385ZM6 4.15385C7.16063 4.15385 8.1 3.22479 8.1 2.07692C8.1 0.929052 7.16063 0 6 0C4.83938 0 3.9 0.929052 3.9 2.07692C3.9 3.22479 4.83938 4.15385 6 4.15385ZM7.44 4.74725H7.28438C6.89438 4.93269 6.46125 5.04396 6 5.04396C5.53875 5.04396 5.1075 4.93269 4.71563 4.74725H4.56C3.3675 4.74725 2.4 5.70412 2.4 6.88352V7.41758C2.4 7.909 2.80313 8.30769 3.3 8.30769H8.7C9.19688 8.30769 9.6 7.909 9.6 7.41758V6.88352C9.6 5.70412 8.6325 4.74725 7.44 4.74725ZM3.24563 4.49876C3.02813 4.28551 2.73 4.15385 2.4 4.15385H1.2C0.538125 4.15385 0 4.68606 0 5.34066V5.93407C0 6.26229 0.268125 6.52747 0.6 6.52747H1.83563C1.95375 5.64849 2.49 4.90859 3.24563 4.49876Z"
    />
</svg>