<svg width="40" height="40" viewBox="0 0 40 40" fill="none" xmlns="http://www.w3.org/2000/svg">
<g filter="url(#filter0_b)">
<path fill-rule="evenodd" clip-rule="evenodd" d="M20 40C31.0457 40 40 31.0457 40 20C40 8.9543 31.0457 0 20 0C8.9543 0 0 8.9543 0 20C0 31.0457 8.9543 40 20 40ZM25.2044 21.6666L29.4902 17.7207C29.7887 17.4458 29.7884 16.9826 29.4902 16.708L25.2044 12.762C24.7531 12.3464 23.9997 12.6538 23.9997 13.2683V15.358C19.6425 15.3816 16.1425 16.2104 16.1425 20.3871C16.1425 22.0455 17.1917 23.6884 18.3514 24.5473C18.7133 24.8153 19.2291 24.4789 19.0956 24.0444C17.8816 20.091 19.6968 19.1003 23.9997 19.0721V21.1603C23.9997 21.7742 24.7526 22.0826 25.2044 21.6666ZM23.9997 25.5715V23.573C23.9997 23.3598 24.194 23.1985 24.4104 23.2288C24.7527 23.2769 25.1019 23.2433 25.4279 23.1309C25.6605 23.0506 25.9044 23.2183 25.9044 23.4588V26.0358C25.9044 26.805 25.2648 27.4286 24.4759 27.4286H13.9997C13.2107 27.4286 12.5711 26.805 12.5711 26.0358V15.8215C12.5711 15.0522 13.2107 14.4286 13.9997 14.4286H17.6018C17.9754 14.4286 18.0981 14.917 17.7669 15.0853C17.208 15.3693 16.6936 15.7269 16.2486 16.1786C16.2153 16.2125 16.1754 16.2394 16.1311 16.2578C16.0869 16.2762 16.0393 16.2857 15.9912 16.2858H14.4759V25.5715H23.9997Z" fill="white" fill-opacity="0.75"/>
</g>
<defs>
<filter id="filter0_b" x="-50" y="-50" width="140" height="140" filterUnits="userSpaceOnUse" color-interpolation-filters="sRGB">
<feFlood flood-opacity="0" result="BackgroundImageFix"/>
<feGaussianBlur in="BackgroundImage" stdDeviation="25"/>
<feComposite in2="SourceAlpha" operator="in" result="effect1_backgroundBlur"/>
<feBlend mode="normal" in="SourceGraphic" in2="effect1_backgroundBlur" result="shape"/>
</filter>
</defs>
</svg>
