<svg viewBox="0 0 12 9" xmlns="http://www.w3.org/2000/svg">
    <path
        d="M9.55792 5.03571C9.34708 5.18133 8.80396 5.70714 7.78188 5.70714C6.75979 5.70714 6.21625 5.18259 6.00562 5.03571H6.00396C5.85125 5.14063 5.27083 5.70714 4.22729 5.70714C3.20375 5.70714 2.66125 5.18259 2.44938 5.03571H2.44479C2.27104 5.15531 1.88875 5.51054 1.20313 5.64839L1.84896 7.59721C1.89302 7.73093 1.97773 7.8473 2.0911 7.92984C2.20446 8.01238 2.34074 8.05692 2.48063 8.05714H9.51958C9.65951 8.05715 9.79589 8.01282 9.90941 7.93043C10.0229 7.84803 10.1078 7.73175 10.1521 7.59805L10.7979 5.64923C10.1081 5.51033 9.70479 5.13727 9.55917 5.03655L9.55792 5.03571ZM11.3333 3.69286C11.1992 3.69286 11.1173 3.66768 11.0319 3.619C10.311 1.51428 8.33479 0 6 0C3.66521 0 1.6875 1.51512 0.967708 3.62047C0.882917 3.66831 0.801042 3.69286 0.666667 3.69286C0.489856 3.69286 0.320286 3.7636 0.195262 3.88951C0.0702379 4.01543 0 4.18621 0 4.36429C0 4.54236 0.0702379 4.71314 0.195262 4.83906C0.320286 4.96497 0.489856 5.03571 0.666667 5.03571C1.33333 5.03571 1.70833 4.75308 1.95667 4.56592C2.14583 4.42325 2.22396 4.36429 2.44688 4.36429C2.66979 4.36429 2.74833 4.42325 2.9375 4.56592C3.18563 4.75308 3.56021 5.03571 4.22729 5.03571C4.89438 5.03571 5.26896 4.75288 5.51646 4.5655C5.70396 4.42325 5.78312 4.36429 6.005 4.36429C6.22687 4.36429 6.30479 4.42325 6.49333 4.5655C6.74104 4.75267 7.11542 5.03571 7.78208 5.03571C8.44875 5.03571 8.82271 4.75288 9.07042 4.5655C9.25896 4.42325 9.33708 4.36429 9.55875 4.36429C9.78042 4.36429 9.8575 4.42325 10.0458 4.56529C10.2929 4.75288 10.6667 5.03571 11.3333 5.03571C11.5101 5.03571 11.6797 4.96497 11.8047 4.83906C11.9298 4.71314 12 4.54236 12 4.36429C12 4.18621 11.9298 4.01543 11.8047 3.88951C11.6797 3.7636 11.5101 3.69286 11.3333 3.69286ZM4.29813 1.8288L3.96479 2.50023C3.76813 2.89533 3.16958 2.60074 3.36854 2.19998L3.70188 1.52855C3.90042 1.13304 4.49542 1.4314 4.29813 1.8288ZM6.33333 2.35C6.33333 2.79419 5.66667 2.7944 5.66667 2.35V1.67857C5.66667 1.23438 6.33333 1.23417 6.33333 1.67857V2.35ZM8.03521 2.50023L7.70188 1.8288C7.50438 1.43119 8.10042 1.13241 8.29813 1.52855L8.63146 2.19998C8.83 2.59969 8.23208 2.89554 8.03521 2.50023Z"
    />
</svg>