<svg viewBox="0 0 10 10" xmlns="http://www.w3.org/2000/svg">
    <path
        d="M6.78564 6.93548C6.49325 8.73589 5.80359 10 5.00101 10C4.19843 10 3.50877 8.73589 3.21637 6.93548H6.78564ZM3.06513 5C3.06513 4.55242 3.08933 4.12298 3.13168 3.70968H6.86832C6.91067 4.12298 6.93487 4.55242 6.93487 5C6.93487 5.44758 6.91067 5.87702 6.86832 6.29032H3.13168C3.08933 5.87702 3.06513 5.44758 3.06513 5ZM9.61283 6.93548C9.0361 8.30444 7.86852 9.3629 6.4267 9.79032C6.91873 9.10887 7.25751 8.08266 7.43497 6.93548H9.61283ZM3.5733 9.79032C2.13349 9.3629 0.963904 8.30444 0.389191 6.93548H2.56705C2.74249 8.08266 3.08127 9.10887 3.5733 9.79032V9.79032ZM9.8286 6.29032H7.51563C7.55798 5.86694 7.58217 5.43347 7.58217 5C7.58217 4.56653 7.55798 4.13306 7.51563 3.70968H9.82658C9.93749 4.12298 10 4.55242 10 5C10 5.44758 9.93749 5.87702 9.8286 6.29032ZM2.41984 5C2.41984 5.43347 2.44404 5.86694 2.48639 6.29032H0.173422C0.0645292 5.87702 0 5.44758 0 5C0 4.55242 0.0645292 4.12298 0.173422 3.70968H2.48437C2.44404 4.13306 2.41984 4.56653 2.41984 5V5ZM3.21637 3.06452C3.50877 1.26411 4.19843 -2.98023e-07 5.00101 -2.98023e-07C5.80359 -2.98023e-07 6.49325 1.26411 6.78564 3.06452H3.21637ZM6.42872 0.209677C7.86852 0.637096 9.03811 1.69556 9.61484 3.06452H7.43698C7.25953 1.91734 6.92075 0.891129 6.42872 0.209677ZM0.389191 3.06452C0.965921 1.69556 2.13349 0.637096 3.57532 0.209677C3.08328 0.891129 2.74451 1.91734 2.56705 3.06452H0.389191V3.06452Z"
    />
</svg>