<svg viewBox="0 0 12 10" xmlns="http://www.w3.org/2000/svg">
    <path
        d="M7.18033 4.72853L6.06588 6.94716C5.93134 7.21723 5.54117 7.2083 5.41784 6.93376L4.14195 4.11473L3.46924 5.71508H1.3592L5.45148 9.8778C5.61068 10.0407 5.86855 10.0407 6.02776 9.8778L10.1223 5.71508H7.67588L7.18033 4.72853ZM10.6223 0.936332L10.5685 0.880531C9.4137 -0.29351 7.52341 -0.29351 6.36635 0.880531L5.74074 1.51889L5.11513 0.882763C3.96032 -0.293511 2.06778 -0.293511 0.912968 0.882763L0.859152 0.936332C-0.232871 2.04788 -0.27996 3.81787 0.695461 5.00084H2.99162L3.79663 3.07684C3.91771 2.78891 4.32582 2.78221 4.45588 3.06791L5.76092 5.95391L6.85967 3.76876C6.99197 3.50538 7.36868 3.50538 7.50098 3.76876L8.11987 5.00084H10.786C11.7614 3.81787 11.7144 2.04788 10.6223 0.936332V0.936332Z"
    />
</svg>