<svg viewBox="0 0 21 18" xmlns="http://www.w3.org/2000/svg">
    <path
        d="M20.7259 6.23841L15.4758 11.0191C14.9224 11.5231 14 11.1495 14 10.4057V7.87578C8.72904 7.90988 6.50541 9.11022 7.99258 13.8999C8.15602 14.4263 7.52423 14.8339 7.0809 14.5092C5.66023 13.4685 4.375 11.4781 4.375 9.46895C4.375 4.40867 8.66246 3.4045 14 3.37596V0.844179C14 0.0997814 14.923 -0.272664 15.4758 0.230773L20.7259 5.0116C21.0912 5.34428 21.0915 5.90545 20.7259 6.23841V6.23841ZM14 13.3287V15.75H2.33333V4.50001H4.18965C4.24856 4.49997 4.30686 4.48845 4.36104 4.46614C4.41522 4.44383 4.46417 4.41119 4.50494 4.37017C5.0501 3.82286 5.68024 3.38967 6.36482 3.04563C6.7706 2.84169 6.62025 2.25001 6.16266 2.25001H1.75C0.78349 2.25001 0 3.00551 0 3.93751V16.3125C0 17.2445 0.78349 18 1.75 18H14.5833C15.5498 18 16.3333 17.2445 16.3333 16.3125V13.1904C16.3333 12.899 16.0345 12.6959 15.7496 12.7931C15.3502 12.9293 14.9225 12.97 14.5031 12.9118C14.2381 12.875 14 13.0705 14 13.3287V13.3287Z"
    />
</svg>