<svg viewBox="0 0 13 10" xmlns="http://www.w3.org/2000/svg">
    <path
        d="M12.5967 8.46856C12.4312 8.07018 11.9702 7.88076 11.5684 8.04675L11.133 8.22641L10.3706 6.23648C11.3142 5.55299 11.6472 4.27779 11.0503 3.25256L9.34422 0.313556C9.18662 0.042113 8.84974 -0.0711509 8.55621 0.0479714L6.30448 0.973611L4.05275 0.0479714C3.75922 -0.0731038 3.42235 0.042113 3.26475 0.313556L1.55871 3.25256C0.963769 4.27779 1.29473 5.55299 2.23837 6.23452L1.47597 8.22445L1.0406 8.04479C0.638717 7.8788 0.179703 8.06823 0.0122517 8.4666C-0.0212385 8.54667 0.0161918 8.63845 0.0969624 8.67165L3.2943 9.98786C3.37507 10.0211 3.46569 9.98395 3.49918 9.90388C3.66466 9.50551 3.47554 9.04855 3.07366 8.88256L2.63828 8.7029L3.41447 6.67977C3.50115 6.68953 3.58783 6.70515 3.67254 6.70515C4.69104 6.70515 5.63074 6.05877 5.90654 5.03939L6.30448 3.56696L6.70243 5.03939C6.97823 6.05877 7.91793 6.70515 8.93642 6.70515C9.02114 6.70515 9.10782 6.68953 9.1945 6.67977L9.96871 8.7029L9.53334 8.88256C9.13146 9.04855 8.94036 9.50551 9.10782 9.90388C9.14131 9.98395 9.2339 10.0211 9.3127 9.98786L12.512 8.67165C12.5908 8.63845 12.6302 8.54862 12.5967 8.46856ZM5.43571 3.16663L3.22732 2.25857L3.94637 1.02048L5.80804 1.78599L5.43571 3.16663V3.16663ZM7.17326 3.16663L6.80093 1.78599L8.66259 1.02048L9.38165 2.25857L7.17326 3.16663V3.16663Z"
    />
</svg>