<svg viewBox="0 0 10 10" xmlns="http://www.w3.org/2000/svg">
    <path
        d="M9.34206 2.93846C8.57046 2.14335 7.37439 2.03437 6.52153 1.33222C5.54854 0.531251 4.80019 -0.18066 3.4246 0.0410189C1.72943 0.314455 1.24245 1.60351 0.982839 3.11014C0.76601 4.36678 -0.0800108 5.5906 0.00613452 6.8779C0.0922798 8.16519 1.03812 9.38628 2.25197 9.82202C4.06864 10.4742 5.12231 9.20269 6.24942 8.13355C7.10267 7.32418 8.07391 7.39684 9.00236 6.6904C10.1017 5.85407 10.4032 3.94529 9.34206 2.93846V2.93846ZM4.37415 6.88239C3.16812 6.88239 2.18633 5.89997 2.18633 4.69275C2.18633 3.48553 3.16812 2.50292 4.37415 2.50292C5.58019 2.50292 6.56197 3.48514 6.56197 4.69275C6.56197 5.90036 5.58155 6.88239 4.37415 6.88239ZM4.21788 3.12499C3.84501 3.12545 3.48754 3.27376 3.22388 3.53738C2.96022 3.801 2.81189 4.15841 2.81142 4.53123C2.81142 4.61411 2.84435 4.69359 2.90297 4.7522C2.96158 4.8108 3.04108 4.84373 3.12397 4.84373C3.20686 4.84373 3.28636 4.8108 3.34497 4.7522C3.40359 4.69359 3.43652 4.61411 3.43652 4.53123C3.43677 4.32411 3.51918 4.12555 3.66566 3.97909C3.81214 3.83263 4.01073 3.75024 4.21788 3.74998C4.30077 3.74998 4.38027 3.71706 4.43888 3.65845C4.4975 3.59985 4.53042 3.52036 4.53042 3.43749C4.53042 3.35461 4.4975 3.27512 4.43888 3.21652C4.38027 3.15791 4.30077 3.12499 4.21788 3.12499Z"
    />
</svg>