<svg viewBox="0 0 9 10" xmlns="http://www.w3.org/2000/svg">
    <path
        d="M8.33333 4.14062V3.35938C8.33333 3.22988 8.2167 3.125 8.07292 3.125H0.260417C0.116629 3.125 0 3.22988 0 3.35938V4.14062C0 4.27012 0.116629 4.375 0.260417 4.375H0.628534C0.230469 5.12734 0 5.9625 0 6.75C0 7.51328 0.219866 8.12988 0.595238 8.61582V9.53125C0.595238 9.79004 0.795201 10 1.04167 10C1.28813 10 1.4881 9.79004 1.4881 9.53125V9.38496C2.21261 9.80098 3.14621 10 4.16667 10C5.18713 10 6.12072 9.80098 6.84524 9.38496V9.53125C6.84524 9.79004 7.0452 10 7.29167 10C7.53813 10 7.7381 9.79004 7.7381 9.53125V8.61582C8.11347 8.12988 8.33333 7.51328 8.33333 6.75C8.33333 5.9625 8.10286 5.12734 7.7048 4.375H8.07292C8.2167 4.375 8.33333 4.27012 8.33333 4.14062V4.14062ZM2.97619 1.25C3.30487 1.25 3.57143 0.970117 3.57143 0.625C3.57143 0.279883 3.30487 0 2.97619 0C2.64751 0 2.38095 0.279883 2.38095 0.625C2.38095 0.970117 2.64751 1.25 2.97619 1.25ZM5.05952 2.5C5.55264 2.5 5.95238 2.08027 5.95238 1.5625C5.95238 1.04473 5.55264 0.625 5.05952 0.625C4.56641 0.625 4.16667 1.04473 4.16667 1.5625C4.16667 2.08027 4.56641 2.5 5.05952 2.5Z"
    />
</svg>