<svg width="40" height="40" viewBox="0 0 40 40" fill="none" xmlns="http://www.w3.org/2000/svg">
<path fill-rule="evenodd" clip-rule="evenodd" d="M20 40C31.0457 40 40 31.0457 40 20C40 8.9543 31.0457 0 20 0C8.9543 0 0 8.9543 0 20C0 31.0457 8.9543 40 20 40ZM25.686 16.5885L22.2745 20L25.686 23.4115C26.1047 23.8305 26.1047 24.5092 25.686 24.9278L24.9278 25.686C24.5092 26.1047 23.8301 26.1047 23.4115 25.686L20 22.2745L16.5885 25.686C16.1699 26.1047 15.4908 26.1047 15.0722 25.686L14.314 24.9278C13.8953 24.5089 13.8953 23.8301 14.314 23.4115L17.7255 20L14.314 16.5885C13.8953 16.1695 13.8953 15.4908 14.314 15.0722L15.0722 14.314C15.4911 13.8953 16.1699 13.8953 16.5885 14.314L20 17.7255L23.4115 14.314C23.8305 13.8953 24.5092 13.8953 24.9278 14.314L25.686 15.0722C26.1047 15.4911 26.1047 16.1699 25.686 16.5885Z" fill="white"/>
</svg>
