<svg viewBox="0 0 12 10" xmlns="http://www.w3.org/2000/svg">
    <path
        d="M11.1823 1.57209C11.0328 1.5457 10.8792 1.55452 10.7337 1.59785C10.881 1.40269 10.9496 1.15905 10.9258 0.915443C10.8883 0.524612 10.6213 0.17326 10.2492 0.0506906C10.1135 0.00562658 9.96982 -0.00964969 9.82779 0.00589909C9.68576 0.0214479 9.54873 0.0674576 9.426 0.140804C9.30328 0.21415 9.19773 0.313116 9.11653 0.430981C9.03533 0.548845 8.98037 0.682849 8.9554 0.823892C8.93172 0.953944 8.93446 1.08745 8.96346 1.21641C9.02965 1.51099 8.93796 1.81798 8.69027 1.99074C8.40002 2.19246 8.23596 2.32179 7.78896 2.51711C7.06877 2.08041 6.25933 1.80463 5.40001 1.80463C2.41763 1.80463 0 5.0593 0 7.21873C0 9.37817 2.41763 9.625 5.40001 9.625C8.3824 9.625 10.8 9.37836 10.8 7.21873C10.8 6.27879 10.3399 5.13318 9.57678 4.1374C9.04163 4.58132 8.64469 5.16981 8.43302 5.83306C8.07583 6.92603 7.15577 7.70036 6.08927 7.80564C5.98927 7.81541 5.89114 7.8203 5.79489 7.8203C4.86939 7.8203 4.03595 7.38792 3.50851 6.63597C3.28917 6.32229 3.1368 5.96658 3.06095 5.59112C3.05703 5.56935 3.05795 5.54699 3.06364 5.52562C3.06933 5.50425 3.07965 5.48441 3.09387 5.4675C3.10809 5.45058 3.12585 5.43703 3.14589 5.42778C3.16593 5.41854 3.18776 5.41385 3.20982 5.41403H3.51788C3.55173 5.41447 3.58444 5.42637 3.61068 5.44781C3.63693 5.46924 3.65517 5.49895 3.66245 5.53209C3.88539 6.47542 4.71826 7.21873 5.7947 7.21873C5.87208 7.21873 5.95058 7.21485 6.0302 7.20708C6.88971 7.1223 7.59265 6.47279 7.86283 5.64582C8.25133 4.4566 9.0454 3.74299 9.56234 3.38224C9.83909 3.18918 10.1899 3.22527 10.4738 3.40762C10.6429 3.51567 10.8407 3.56981 11.0412 3.5629C11.433 3.55218 11.7934 3.29257 11.9322 2.92486C12.1613 2.31766 11.7848 1.68244 11.1823 1.57209V1.57209Z"
    />
</svg>